# xmcd
#
# Track frame offsets:
#	150
#	22500
#	42538
#	67455
#	88203
#	110386
#	131893
#	150774
#	172741
#	191131
#	221109
#	251581
#	275352
#	311585
#
# Disc length: 4423 seconds
#
# Revision: 0
# Processed by: cddbd v1.5.2PL0 Copyright (c) Steve Scherf et al.
# Submitted via: EZCDAudioConverter 2.1.7.1
#
DISCID=c511450e
DTITLE=Cutting Crew - Broadcast
DYEAR=1900
DGENRE=
TTITLE0=Any Colour
TTITLE1=One For The Mockingbird
TTITLE2=I've Been In Love Before
TTITLE3=Life In A Dangerous Time
TTITLE4=Fear Of Falling
TTITLE5=(I Just) Died In Your Arms
TTITLE6=Don't Look Back
TTITLE7=Sahara
TTITLE8=It Shouldn't Take Too Long
TTITLE9=The Broadcast
TTITLE10=(I Just) Died In Your Arms [12'' Remix]
TTITLE11=I've Been In Love Before [Live In London]
TTITLE12=The Broadcast - Any Colour [Live In Tampa]
TTITLE13=For The Longest Time [B-Side]
EXTD=
EXTT0=
EXTT1=
EXTT2=
EXTT3=
EXTT4=
EXTT5=
EXTT6=
EXTT7=
EXTT8=
EXTT9=
EXTT10=
EXTT11=
EXTT12=
EXTT13=
PLAYORDER=
